<svg width="25" height="24" viewBox="0 0 25 24" fill="none" xmlns="http://www.w3.org/2000/svg">
<path d="M8.24634 18C7.14634 18 6.25634 18.9 6.25634 20C6.25634 21.1 7.14634 22 8.24634 22C9.34634 22 10.2463 21.1 10.2463 20C10.2463 18.9 9.34634 18 8.24634 18ZM18.2463 18C17.1463 18 16.2563 18.9 16.2563 20C16.2563 21.1 17.1463 22 18.2463 22C19.3463 22 20.2463 21.1 20.2463 20C20.2463 18.9 19.3463 18 18.2463 18ZM16.7963 13C17.5463 13 18.2063 12.59 18.5463 11.97L22.1263 5.48C22.4963 4.82 22.0163 4 21.2563 4H6.45634L5.51634 2H2.24634V4H4.24634L7.84634 11.59L6.49634 14.03C5.76634 15.37 6.72634 17 8.24634 17H20.2463V15H8.24634L9.34634 13H16.7963ZM7.40634 6H19.5563L16.7963 11H9.77634L7.40634 6Z" fill="#18374A"/>
</svg>
