<svg width="65" height="32" viewBox="0 0 65 32" fill="none" xmlns="http://www.w3.org/2000/svg">
<path d="M39.6822 16.98C39.7222 16.66 39.7522 16.34 39.7522 16C39.7522 15.66 39.7222 15.34 39.6822 15.02L41.7922 13.37C41.9822 13.22 42.0322 12.95 41.9122 12.73L39.9122 9.27C39.8222 9.11 39.6522 9.02 39.4722 9.02C39.4122 9.02 39.3522 9.03 39.3022 9.05L36.8122 10.05C36.2922 9.65 35.7322 9.32 35.1222 9.07L34.7422 6.42C34.7122 6.18 34.5022 6 34.2522 6H30.2522C30.0022 6 29.7922 6.18 29.7622 6.42L29.3822 9.07C28.7722 9.32 28.2122 9.66 27.6922 10.05L25.2022 9.05C25.1422 9.03 25.0822 9.02 25.0222 9.02C24.8522 9.02 24.6822 9.11 24.5922 9.27L22.5922 12.73C22.4622 12.95 22.5222 13.22 22.7122 13.37L24.8222 15.02C24.7822 15.34 24.7522 15.67 24.7522 16C24.7522 16.33 24.7822 16.66 24.8222 16.98L22.7122 18.63C22.5222 18.78 22.4722 19.05 22.5922 19.27L24.5922 22.73C24.6822 22.89 24.8522 22.98 25.0322 22.98C25.0922 22.98 25.1522 22.97 25.2022 22.95L27.6922 21.95C28.2122 22.35 28.7722 22.68 29.3822 22.93L29.7622 25.58C29.7922 25.82 30.0022 26 30.2522 26H34.2522C34.5022 26 34.7122 25.82 34.7422 25.58L35.1222 22.93C35.7322 22.68 36.2922 22.34 36.8122 21.95L39.3022 22.95C39.3622 22.97 39.4222 22.98 39.4822 22.98C39.6522 22.98 39.8222 22.89 39.9122 22.73L41.9122 19.27C42.0322 19.05 41.9822 18.78 41.7922 18.63L39.6822 16.98ZM37.7022 15.27C37.7422 15.58 37.7522 15.79 37.7522 16C37.7522 16.21 37.7322 16.43 37.7022 16.73L37.5622 17.86L38.4522 18.56L39.5322 19.4L38.8322 20.61L37.5622 20.1L36.5222 19.68L35.6222 20.36C35.1922 20.68 34.7822 20.92 34.3722 21.09L33.3122 21.52L33.1522 22.65L32.9522 24H31.5522L31.2022 21.52L30.1422 21.09C29.7122 20.91 29.3122 20.68 28.9122 20.38L28.0022 19.68L26.9422 20.11L25.6722 20.62L24.9722 19.41L26.0522 18.57L26.9422 17.87L26.8022 16.74C26.7722 16.43 26.7522 16.2 26.7522 16C26.7522 15.8 26.7722 15.57 26.8022 15.27L26.9422 14.14L26.0522 13.44L24.9722 12.6L25.6722 11.39L26.9422 11.9L27.9822 12.32L28.8822 11.64C29.3122 11.32 29.7222 11.08 30.1322 10.91L31.1922 10.48L31.3522 9.35L31.5522 8H32.9422L33.2922 10.48L34.3522 10.91C34.7822 11.09 35.1822 11.32 35.5822 11.62L36.4922 12.32L37.5522 11.89L38.8222 11.38L39.5222 12.59L38.4522 13.44L37.5622 14.14L37.7022 15.27ZM32.2522 12C30.0422 12 28.2522 13.79 28.2522 16C28.2522 18.21 30.0422 20 32.2522 20C34.4622 20 36.2522 18.21 36.2522 16C36.2522 13.79 34.4622 12 32.2522 12ZM32.2522 18C31.1522 18 30.2522 17.1 30.2522 16C30.2522 14.9 31.1522 14 32.2522 14C33.3522 14 34.2522 14.9 34.2522 16C34.2522 17.1 33.3522 18 32.2522 18Z" fill="#18374A"/>
</svg>
